<svg id="Icono" xmlns="http://www.w3.org/2000/svg" width="264" height="264" viewBox="0 0 264 264">
  <g id="Elipse_1" data-name="Elipse 1" fill="none" stroke="#fff" stroke-width="6">
    <circle cx="132" cy="132" r="132" stroke="none"/>
    <circle cx="132" cy="132" r="129" fill="none"/>
  </g>
  <path id="icons8_dog_training" d="M21.773,3A17.773,17.773,0,1,0,39.546,20.773,17.773,17.773,0,0,0,21.773,3ZM15.849,50.394A11.845,11.845,0,0,0,4,62.243v76.819a6.122,6.122,0,0,0,12.23.405l2.592-38.913a2.957,2.957,0,0,1,5.9-.012l2.592,38.925a6.122,6.122,0,0,0,12.23-.405V68.167a5.926,5.926,0,0,1,5.924-5.924H75.092a5.925,5.925,0,1,0,0-11.849H15.849Zm99.695,22.471-6.19,5.4c-5.237-2.773-12.487-4.639-15.863,1.747-1.517.13-5.989,0-8.436,0-3.081,0-3.957,1.915-3.957,4.617,0,4.852,1.646,7.869,3.957,9.095l7.811,3.078c0,22.133,4.559,30.547,4.559,30.547a16.861,16.861,0,0,1,13.214-5.866v5.924c-5.6,0-7.533,5.924-7.533,5.924H98.789a5.924,5.924,0,1,0,0,11.849h27.816a5.84,5.84,0,0,0,3.876-1.423,5.925,5.925,0,1,0,3.853-10.426c0-18.016-21.433-27.855-22.008-33.093-.332-2.974-1.432-5.122,1.655-10.958C118.1,81.5,115.543,72.865,115.543,72.865Z" transform="translate(59.675 57.713)" fill="#fff"/>
</svg>
