<svg xmlns="http://www.w3.org/2000/svg" width="253" height="253" viewBox="0 0 253 253">
  <g id="Icon_1" data-name="Icon 1" transform="translate(-514 -680)">
    <g id="Elipse_2" data-name="Elipse 2" transform="translate(514 680)" fill="#fff" stroke="#00455b" stroke-width="5">
      <circle cx="126.5" cy="126.5" r="126.5" stroke="none"/>
      <circle cx="126.5" cy="126.5" r="124" fill="none"/>
    </g>
    <path id="icons8_magazine" d="M131.363,1.82a3.31,3.31,0,0,0-2.057.582c-.207.129-20.078,13.273-74.3,13.273a3.32,3.32,0,0,0-2.962,1.837L2.614,116.377a3.311,3.311,0,0,0,.22,4.14,1.843,1.843,0,0,0,.142.155,2.1,2.1,0,0,0,.181.168v.013a1.576,1.576,0,0,0,.181.129c.919.789,40.014,33.791,104.66,33.791a3.311,3.311,0,0,0,2.975-1.863L154.08,64.823a3.316,3.316,0,1,0-5.951-2.924l-42.136,86.134a176.207,176.207,0,0,1-53.507-8.874,128.205,128.205,0,0,0,40.143-.686,3.343,3.343,0,0,0,2.419-1.811L148.09,28.25a3.31,3.31,0,1,0-5.938-2.924L89.887,132.108A120.877,120.877,0,0,1,29.2,126.661a128.567,128.567,0,0,0,15.731,1.022c10.88,0,22.368-1.578,32.278-6.352a3.377,3.377,0,0,0,1.553-1.539l55.4-113.224a3.312,3.312,0,0,0-2.794-4.748Z" transform="translate(562.286 728.206)" fill="#00455b"/>
  </g>
</svg>
