<svg xmlns="http://www.w3.org/2000/svg" width="253" height="253" viewBox="0 0 253 253">
  <g id="Icon_1" data-name="Icon 1" transform="translate(-514 -680)">
    <g id="Elipse_2" data-name="Elipse 2" transform="translate(514 680)" fill="#fff" stroke="#00455b" stroke-width="5">
      <circle cx="126.5" cy="126.5" r="126.5" stroke="none"/>
      <circle cx="126.5" cy="126.5" r="124" fill="none"/>
    </g>
    <path id="icons8_pets" d="M30.18,3C16.575,3,1,26.308,1,35.828,1,43.451,7.493,49.8,14.97,52.57a20.9,20.9,0,0,1,1.311-1.824,41.726,41.726,0,0,1-.691-7.623A43.7,43.7,0,0,1,37.7,5.116,14.308,14.308,0,0,0,30.18,3ZM88.541,3a14.308,14.308,0,0,0-7.516,2.116,43.7,43.7,0,0,1,22.106,38.007,41.726,41.726,0,0,1-.691,7.623,20.9,20.9,0,0,1,1.311,1.824c7.477-2.772,13.97-9.118,13.97-16.742C117.722,26.308,102.147,3,88.541,3ZM59.361,6.648A36.392,36.392,0,0,0,24.2,52.719a30.983,30.983,0,0,0,22.4,52.412h9.119V82.192c-4.268-2.407-7.3-8.32-7.3-9.888,0-2.006,4.888-3.648,10.943-3.648S70.3,70.3,70.3,72.3c0,1.568-3.027,7.481-7.3,9.888v22.94h9.119a30.983,30.983,0,0,0,22.4-52.412A36.392,36.392,0,0,0,59.361,6.648ZM46.594,46.771a5.471,5.471,0,1,1-5.471,5.471A5.464,5.464,0,0,1,46.594,46.771Zm25.533,0a5.471,5.471,0,1,1-5.471,5.471A5.464,5.464,0,0,1,72.127,46.771Zm86.117,21.921a3.492,3.492,0,0,0-2.657.769L138.952,82.733a68.546,68.546,0,0,0-21.23-3.135,71.875,71.875,0,0,0-7.73.4,38.387,38.387,0,0,1-37.865,32.429H66.62a87.306,87.306,0,0,0-3.612,25.5,3.654,3.654,0,0,0,.513,1.86c.547.985,14.3,23.709,54.2,23.709s53.653-22.724,54.2-23.709a3.654,3.654,0,0,0,.513-1.86c-.146-17.982-4.271-28.267-6.569-32.572a21.226,21.226,0,0,0,2.921-11.163,41.532,41.532,0,0,0-8.1-24.144A3.6,3.6,0,0,0,158.244,68.692Zm-53.289,43.735a5.471,5.471,0,1,1-5.471,5.471A5.464,5.464,0,0,1,104.955,112.427Zm25.533,0a5.471,5.471,0,1,1-5.471,5.471A5.464,5.464,0,0,1,130.488,112.427Zm-12.766,14.59c6.055,0,10.943,1.641,10.943,3.648,0,1.277-2.878,5.256-5.906,8.064a8.141,8.141,0,0,0,5.906,2.878v7.3a15.152,15.152,0,0,1-10.943-4.887,15.152,15.152,0,0,1-10.943,4.887v-7.3a8.141,8.141,0,0,0,5.906-2.878c-3.027-2.809-5.906-6.788-5.906-8.064C106.779,128.658,111.667,127.017,117.722,127.017Z" transform="translate(553.782 723.254)" fill="#00455b"/>
  </g>
</svg>
