<svg xmlns="http://www.w3.org/2000/svg" width="253" height="253" viewBox="0 0 253 253">
  <g id="Icon_1" data-name="Icon 1" transform="translate(-514 -680)">
    <g id="Elipse_2" data-name="Elipse 2" transform="translate(514 680)" fill="#fff" stroke="#00455b" stroke-width="5">
      <circle cx="126.5" cy="126.5" r="126.5" stroke="none"/>
      <circle cx="126.5" cy="126.5" r="124" fill="none"/>
    </g>
    <path id="icons8_home_address" d="M82.864,2A78.865,78.865,0,0,0,4,80.864c0,51.864,51.282,76.7,57.706,82.477,6.56,5.9,11.97,19.12,14.157,26.62a7.189,7.189,0,0,0,14,0c2.187-7.5,7.6-20.712,14.157-26.62,6.424-5.779,57.706-30.613,57.706-82.477A78.865,78.865,0,0,0,82.864,2Zm.014,43.017a3.562,3.562,0,0,1,2.142.714L113.7,67.239a3.586,3.586,0,0,1-2.157,6.455v35.847H90.034V88.034H75.695v21.508H54.186V73.624a3.5,3.5,0,0,1-2.871-1.358,3.6,3.6,0,0,1,.728-5.027L80.722,45.731A3.6,3.6,0,0,1,82.878,45.017Z" transform="translate(557.136 709.5)" fill="#00455b"/>
  </g>
</svg>
